<?xml version="1.0" encoding="UTF-8" standalone="no"?>
<svg width="130px" height="47px" viewBox="0 0 130 47" version="1.1" xmlns="http://www.w3.org/2000/svg" xmlns:xlink="http://www.w3.org/1999/xlink">
    <!-- Generator: Sketch 50.2 (55047) - http://www.bohemiancoding.com/sketch -->
    <title>logo/version1</title>
    <desc>Created with Sketch.</desc>
    <defs>
        <polygon id="path-1" points="0 0.0198474617 129.921701 0.0198474617 129.921701 46.9044631 0 46.9044631"></polygon>
        <linearGradient x1="50%" y1="1.38711735%" x2="50%" y2="100%" id="linearGradient-3">
            <stop stop-color="#313333" offset="0%"></stop>
            <stop stop-color="#7B7D7D" offset="100%"></stop>
        </linearGradient>
    </defs>
    <g id="Symbols" stroke="none" stroke-width="1" fill="none" fill-rule="evenodd">
        <g id="bg/header" transform="translate(-137.000000, -22.000000)">
            <g id="logo/version1">
                <g transform="translate(137.000000, 22.000000)">
                    <g>
                        <g id="Partie-Sup">
                            <mask id="mask-2" fill="white">
                                <use xlink:href="#path-1"></use>
                            </mask>
                            <g id="Clip-2"></g>
                            <path d="M41.0335812,0.0198389799 L50.0904188,0.0198389799 C48.1502479,9.29046961 46.1460598,18.4980803 44.1612735,27.7242662 C45.0946068,27.5076405 45.9430684,27.2071296 46.9157179,27.0294354 C47.9259744,22.1791059 48.9387094,17.3311513 49.9502479,12.4822638 L58.6336667,12.4822638 C58.3257179,14.0296872 57.9317009,15.4917836 57.6533248,17.0689782 C58.7495641,15.7563316 59.9630684,14.421717 61.6214444,13.4550438 C63.2511026,12.5053343 65.2217863,11.9036339 67.5504188,11.6946418 C72.6462308,11.237811 76.4187094,12.8473214 77.214265,17.1615997 C78.6058889,15.3058621 80.654094,13.6884636 83.1432393,12.6674219 C85.6590513,11.6354387 89.0135812,11.2857332 92.0599915,12.111693 C94.8196496,12.8597048 96.828453,14.4119629 97.8022137,16.8832264 C98.8204188,19.4672132 98.1430684,23.0178732 97.4287949,25.8248472 C102.066316,26.6908411 108.988197,27.2650604 114.84247,26.7050906 C117.460419,26.4548768 120.497598,26.105341 121.238026,24.06453 C123.018709,19.1564393 116.652812,17.6640628 112.788282,19.1074144 C110.756231,19.8658588 109.426658,21.2585739 109.099991,23.415501 L100.603239,23.415501 C101.597427,16.6504852 106.501103,13.2890546 113.815034,12.6674219 C117.668368,12.3402781 121.640675,12.6588553 124.552812,13.7793887 C127.442556,14.8913555 129.707855,16.8716911 129.921701,20.3581437 L129.921701,21.7944553 C129.54153,26.1283267 128.465205,29.9452311 127.634094,33.8859701 C127.237342,35.7657113 126.754009,37.7459621 126.279906,39.7234139 C125.80153,41.7186775 125.647855,43.982306 126.140162,46.1168411 L117.083154,46.1168411 L117.083154,43.0592294 C116.934607,43.0087626 116.579137,43.5351444 116.336402,43.7542298 C114.38341,45.5137836 111.56512,46.6225273 108.072983,46.9044631 L106.01888,46.9044631 C103.608624,46.7450048 101.444179,46.0433886 99.9029829,45.0049592 C98.2595641,43.8973182 97.1656325,42.4041783 96.6817009,40.2330866 C95.8489658,36.4969291 97.3214444,33.2297316 99.2030684,31.2917202 C99.8158034,30.6603334 100.926231,30.0074877 100.883325,28.9753348 C100.832043,27.7338507 99.0698205,27.0597155 97.8489658,26.6588646 C96.4541795,26.2007615 94.7446923,25.9824394 93.3204188,25.8248472 C90.148453,25.4742087 86.5488803,25.0665723 83.469906,24.9443493 C76.4062308,24.6644492 68.8581111,24.6431598 62.8353761,25.5468979 C50.3788803,27.4158672 40.377,31.8778989 31.3228974,36.9899774 C29.0185385,38.2910888 26.8158034,39.5980526 24.6002479,40.9743129 C22.4017009,42.3404799 20.1770855,43.7108029 17.5975128,44.6805295 C14.9782821,45.6653538 11.5058889,46.2632374 8.30734188,45.838807 C5.22392308,45.4295592 2.80118803,44.1389652 1.35144444,42.0399689 C-0.131803419,39.8933896 -0.460606838,36.2909905 0.697683761,33.422693 C2.78768376,28.2470857 8.18076068,26.7317235 14.7964872,26.0563161 C18.4682821,25.6819285 24.0064017,25.8716668 24.8805897,22.8600265 C26.1705043,18.4143647 21.1400769,17.0721165 17.5041795,17.8101198 C14.7477692,18.3696655 13.121359,19.9836713 12.6022137,22.4428057 C9.81682906,22.4121864 6.90674359,22.5048079 4.19905128,22.3965798 C5.11546154,16.1590485 9.367,12.839094 15.6834957,11.8797152 C19.0295641,11.3719934 22.8124701,11.493029 25.8610171,12.1576645 C28.8907607,12.818568 31.3752906,14.1231569 32.6767436,16.3739778 C33.8676838,18.4329399 33.5253761,21.8400875 33.0502479,24.4351007 C32.5707607,27.0547961 31.8678547,29.5320816 31.369735,32.0329466 C32.3041795,31.7094499 33.5036667,31.2476996 34.4975983,30.8282735 C36.6387094,20.5216732 38.8748632,10.3092212 41.0335812,0.0198389799 M63.8623846,18.690448 C60.0817863,18.9489739 57.8632393,22.206587 56.6728974,25.0372252 C60.2631538,24.5234813 63.949735,24.1045642 68.0172564,24.06453 C68.8525556,20.6935997 67.0147778,18.4745009 63.8623846,18.690448 M84.4503333,18.690448 C80.9158889,18.9483802 79.0450342,21.6543356 77.7278547,24.06453 C81.4773419,24.1116041 84.9683675,24.4152533 88.5586239,24.6203437 C89.561359,21.0935176 87.9218718,18.4367567 84.4503333,18.690448 M9.42768376,34.0714675 C9.00212821,34.9491664 8.72033333,36.5131294 9.19417949,37.6849778 C9.75093162,39.0610685 11.6581111,39.8844837 13.3027265,40.0011936 C20.1634103,40.4891527 21.9814444,35.0207529 23.2464017,29.5774593 C23.2438376,29.54913 23.2395641,29.5226668 23.199906,29.5309789 C19.3452051,31.9737435 11.4949487,29.8081649 9.42768376,34.0714675 M111.947769,32.0329466 C109.149564,32.265094 106.849479,33.0414351 105.87888,35.0441628 C105.484692,35.857315 105.153752,37.49965 105.785632,38.7969446 C106.432897,40.1263852 108.057769,40.8073059 109.753752,40.928087 C116.692299,41.4211353 118.416744,35.8818274 119.650846,30.5503242 C119.676573,30.5503242 119.703838,30.5128346 119.650846,30.5040983 C117.66512,31.8327756 114.811957,31.795286 111.947769,32.0329466" id="Fill-1" fill="url(#linearGradient-3)" mask="url(#mask-2)"></path>
                        </g>
                        <path d="M74.8320126,35.742452 C74.1176464,39.1729291 73.3733618,42.6521775 72.684469,46.0383632 L63.5330253,46.0383632 C64.9709896,39.3651406 66.3389449,32.6231986 67.7820381,25.9548785 C70.8773115,25.8148194 74.0298572,25.7305472 77.2601054,25.7237852 C76.1551757,28.8364455 75.5469771,32.3103689 74.8320126,35.742452 M93.2285019,46.0383632 L84.1704036,46.0383632 C85.5799882,39.4450174 86.9098189,32.7728937 88.3724018,26.2318694 C91.4091206,26.5227225 94.3824123,26.875871 97.1973929,27.3861529 C95.8783329,33.6074163 94.5507248,39.8202272 93.2285019,46.0383632 M52.0470051,46.0383632 L43.0355796,46.0383632 C44.1059749,40.9872741 45.174746,35.9341563 46.2106924,30.8487498 C49.2786973,29.6810267 52.5239901,28.6886945 55.8757925,27.8016814 C54.6771754,33.7725796 53.2986205,39.965696 52.0470051,46.0383632 M40.3275359,46.0383632 L31.3162813,46.0383632 C32.0166286,42.9912948 32.6234595,39.8519243 33.3238922,36.8046869 C36.4566918,35.0082614 39.8471317,33.4671881 43.3157014,32.0030333 C42.4068655,36.5828914 41.3082615,41.3754163 40.3275359,46.0383632 M29.5885358,46.0383632 L20.5772812,46.0383632 L20.5772812,44.2839469 C23.6617839,42.3478004 26.7677425,40.4328697 29.9622595,38.6053387 C29.5301522,40.5635465 28.9486237,43.722527 29.5885358,46.0383632" id="Partie-Inf" fill="#71D003"></path>
                    </g>
                </g>
            </g>
        </g>
    </g>
</svg>