<svg xmlns="http://www.w3.org/2000/svg" width="1818.65" height="788.49"><path fill="#f6a500" stroke="#f6a500" stroke-width=".73" d="M220.66 487.4c-30.9-2.8-58.95-10.3-79.89-21.39C71.37 429.3 27.76 374.16 9.5 300.05c-11.98-48.59-10.58-96.2 4.08-138.71C26.3 124.4 50.01 88.08 78.06 62.52c29.91-27.28 63.42-44.81 105.03-54.98C210.57.84 213.91.35 233.06.36 251.49.38 257 1 281.03 5.75c16.23 3.21 22.73 5.26 33.41 10.54 13.14 6.49 15.59 9.09 18.28 19.42 1.53 5.84 1.55 16.53.04 21.28-3.05 9.6-15.27 24.37-21.52 26.02-3.79 1-5.06.83-28.22-3.67-24.57-4.77-33.58-5.9-47.41-5.92-13.31-.02-22.66 1.18-37.93 4.86-36 8.67-64.9 25.37-85.28 49.26-22.2 26.02-36.65 58.61-39.76 89.7-2.66 26.5-1.3 45.6 5.03 70.38 8.47 33.17 22.11 57.48 45.24 80.62 22.92 22.93 47.87 37.33 77.83 44.9 13.32 3.37 22.71 4.21 42.03 3.76 21.84-.52 36.72-3.41 55.69-10.83 51.8-20.25 91.3-68.23 103.58-125.8 1.88-8.81 2.01-10.58 2.02-27.3 0-16.27-.17-18.88-2-29.26-3.49-19.8-10.81-47.32-12.6-47.32-.93 0-5.42 5.96-14 18.6-2.45 3.6-5.5 7.63-6.78 8.93-2.05 2.1-2.77 2.37-6.26 2.37-3.6 0-4.22-.25-7.2-3-4.13-3.8-4.25-5.98-.7-12.67 4.58-8.64 44.25-68.7 48.15-72.9 2.7-2.92 6.79-2.53 19.3 1.84 5.82 2.04 23.26 8.06 38.76 13.4 30.99 10.66 35.83 12.62 37.1 14.98 2.26 4.22.12 12.16-3.95 14.71-3.01 1.88-4.6 1.58-22.35-4.16-8.1-2.63-14.88-4.63-15.06-4.45-.18.18.67 3.56 1.88 7.51 4.14 13.53 9.29 35.77 11.77 50.85 3.18 19.36 3.7 54.23 1.08 71.21-7.38 47.62-27.01 89.64-59.45 127.21-35.38 40.98-85.76 67.81-141.21 75.22-8.33 1.1-42.4 2.04-49.88 1.36z"/><path fill="#6e6e6d" stroke="#6e6e6d" stroke-width="1.03" d="M633.18 484.1a133.32 133.32 0 0 1-36.5-12.36c-14.47-7.24-25.96-15.72-38.29-28.23-24.15-24.53-32.7-44.78-39.25-92.94-.5-3.7-.93-77.24-.95-163.44l-.03-156.73c5.17-9.13 12.2-18.9 20.54-23.29 5.69-2.9 23.3-3 29.53-.17 8.6 5.76 13.4 12.57 18.28 20.88l.85 165.24c.54 104.34 1.25 167.71 1.93 171.95 1.72 10.85 7.33 20.74 17.56 30.96 14.15 14.15 27.5 19.6 47.9 19.57 12.75-.02 21.37-1.95 30.8-6.91 12.67-6.66 23.05-18.26 30.41-33.97l2.83-6.04.52-168.66c.58-191.62-.37-173.37 9.65-184.33 7.67-8.4 13.02-10.6 25.72-10.62 7.96 0 10.93.42 14.01 1.99 5.02 2.56 14.26 12.56 18.02 19.51l2.92 5.41-.48 169.9c-.33 116.6-.84 172.48-1.62 178.15-.96 6.88-2.35 10.65-8.36 22.73-9.8 19.7-18.2 32.09-29.35 43.28-18.15 18.23-44.73 32.46-69.62 37.27-11.84 2.29-37 2.75-47.02.86zM955.53 487.89c-9.1-3-16.1-8.98-19.48-16.63-2.11-4.8-7.75-26.67-21.27-82.53-20.85-86.12-64.98-271.45-77.4-325.07l-6.61-28.51c1.71-8.57 5.81-17.05 10.43-21.59 6.82-6.61 13.03-9 23.56-9.02 7.11-.02 9.68.42 13.65 2.37 9.3 4.55 16.63 15.35 21.88 32.2 1.51 4.86 15.65 61.48 31.42 125.84l28.67 117.02 5.27-.04c2.9-.02 5.56-.34 5.92-.7.37-.37 11.24-43.75 24.18-96.4 31.35-127.7 39.46-158.86 43.27-166.26 9.65-18.76 42.18-19.32 55.7-.95 4.9 6.64 6.64 13.87 5.77 23.9-2.39 27.66-16.24 87.6-55.7 240.97a25527.7 25527.7 0 0 0-31.54 124.15c-8.52 33.96-16.15 63.03-16.96 64.6-2.43 4.68-11.57 12.13-17.86 14.53-6.28 2.4-18.58 3.54-22.9 2.12zM1164.23 486.28c-6.1-1.91-11-5.17-15.58-10.37-7.45-8.47-6.86 10.38-7.2-227.46l-.32-215.08 2.8-7.04c3.49-8.7 9.05-15.17 16.06-18.66 4.76-2.37 6.57-2.67 16.5-2.67 9.16 0 11.98.39 15.74 2.16 5.85 2.75 11.95 9.37 15.97 17.33l3.15 6.24v177.81l52.51-.6 52.52-.62 4.86-2.47c8.83-4.5 27.24-22.52 31.54-30.9 1.05-2.04 2.94-7.36 4.2-11.8 4.01-14.2 2.3-37.25-3.73-50.38-4.34-9.45-20.52-25.63-29.98-30-3.12-1.43-12.44-3.62-23.57-5.53-17.91-3.07-25.87-5.5-29.88-9.13-11.65-13.98-13.29-41.7.75-54.63 11.97-9.41 34.43-10.85 59.2-3.79 11.4 3.25 29.56 12.24 38.89 19.24 14.93 11.22 31.2 29.62 41.34 46.78 36.28 61.37 15.92 143.54-45.5 183.64-4.57 2.98-9.56 5.99-11.1 6.69-1.53.7-2.8 1.64-2.8 2.09 0 .44 7.26 17.2 16.13 37.22 22.95 51.86 48.76 112.43 54.94 128.94 6.84 18.29 7.59 24.49 3.84 32.14-3.6 7.35-10.29 13.38-19.95 17.96-6.5 3.1-9.27 3.8-16.26 4.17-14.35.75-17.86-2.51-29.29-27.21-7.45-16.11-43.95-97.63-69.47-155.17l-10.76-24.24-34.05-.27-34.06-.27-.59 91.3-.6 91.3-4.78 8.78c-3.75 6.88-5.6 9.2-8.6 10.72-9.94 5.06-23.7 6.64-32.87 3.78zM1618.56 484.2c-12.45-4.78-16.98-11.47-18.38-27.14-.5-5.52-.92-63.36-.94-128.53l-.03-118.49-13.16-13.6c-7.23-7.5-37.09-38.2-66.35-68.23-75.05-77.04-72.1-73.53-72.93-86.56-.46-7.13-.3-7.86 3.5-15.1 4.8-9.17 10.37-15 17.9-18.76 4.6-2.3 6.98-2.79 13.44-2.79 13.65 0 19.42 4.1 54.53 38.66 20.79 20.45 71.49 72.85 91.36 94.41 11.43 12.4 26.5 30.23 33.99 40.23l5.8 7.73v278.92l-4.91 6.5c-3.88 5.14-6.36 7.23-11.84 10.02-6.33 3.23-7.85 3.56-17.53 3.87-7.45.24-11.74-.1-14.45-1.14zM1697.97 149.04c-5.67-2.12-10.24-5.96-15.76-13.26-8.76-11.6-10.1-16.48-7.16-26.36 3.4-11.44 19.72-30.86 58.74-69.89 20.68-20.67 35.45-32.78 42.32-34.66 6.23-1.71 18.44-.48 24.12 2.45 5.73 2.94 11.6 10.33 14.01 17.66 2.03 6.14 3.2 19.37 2.2 24.72-1.12 6-8.17 14.09-38.44 44.14-39.6 39.3-50.21 49.02-57.57 52.73-7.33 3.7-16.47 4.7-22.46 2.47z"/><path fill="#6e6e6d" stroke="#6e6e6d" stroke-width=".26" d="M283.88 666.7l-7.03.07 6.25 8.5c3.44 4.69 7.04 9.6 8.02 10.9l1.76 2.39h4.13c2.27 0 4.13-.08 4.13-.17 0-.25-9.8-21.33-10.03-21.56-.11-.1-3.36-.17-7.23-.13zm396.86 6.9l-.01 9.35c-.01 10.1-.31 17.14-.77 18-.2.38-.43.49-.73.36a63.62 63.62 0 0 0-8.77-2.7c-16.07-3.23-29.35 4.57-34.3 20.15-1.68 5.3-1.95 7.24-1.96 13.9 0 4.64.1 6.7.45 8.79 1.59 9.42 4.73 15.68 9.98 19.85 3.06 2.43 6.47 3.92 10.95 4.78 1.17.23 2.93.31 4.91.24 5.7-.2 10.21-1.78 16.04-5.6a46.2 46.2 0 0 1 3.55-2.22c.04.04.2 1.17.35 2.5.18 1.54.44 2.6.7 2.85.33.33 1.27.41 5.29.48l4.9.08v-90.8h-5.3zm1109.79 2.2c-4.74-.08-9.4.43-13.8 1.53-11.33 2.85-19.8 9.46-24.99 19.5-2.48 4.79-3.94 9.8-4.7 16.1-.39 3.34-.38 12.68.02 15.99 1.43 11.73 5.08 20.19 11.48 26.57 6.15 6.12 14.36 9.73 24.29 10.67 5.64.54 13.89-.18 20.09-1.75 4.05-1.02 6.02-1.71 11.25-3.95l4.34-1.85v-14.12l-1.48 1.08a97.38 97.38 0 0 1-11 6.93 34.54 34.54 0 0 1-9.1 3.1c-15.83 3.21-28.28-2.35-34.73-15.52-2.9-5.92-3.26-8.03-3.25-18.95 0-10.7.27-12.52 2.59-17.7 2.99-6.68 7.83-12.03 13.45-14.9 8.6-4.37 22.29-3.6 33.34 1.9 1.13.56 3.72 2.13 5.74 3.49 2.02 1.35 3.76 2.38 3.86 2.27.29-.28.53-4.3.56-9.09l.02-4.16-3.74-1.6c-2.06-.87-4.76-1.93-6-2.35a60.16 60.16 0 0 0-18.25-3.19zM35 676.08c-13.5-.01-20.13 2.15-26.7 8.73-3.63 3.62-5.9 7.42-6.74 11.24-.66 3.03-.56 7.77.25 10.84a23.3 23.3 0 0 0 6.65 11.18c3.64 3.37 10.15 5.55 25.5 8.53 8.3 1.62 12.36 2.8 15.87 4.6 4.26 2.2 5.42 4.39 5.4 10.23 0 2.74-.08 3.44-.59 4.69-2 5.02-7.54 8.65-15.02 9.87-3.12.5-9.4.5-12.74 0-7.53-1.13-15.98-4.59-23.7-9.7-1.27-.83-2.37-1.45-2.44-1.38-.17.17.36 14.8.55 14.98.37.38 6.71 2.58 11.02 3.83 5.04 1.46 7.3 1.9 11.47 2.2 8.54.62 18.07-.14 24.23-1.93 6.82-1.98 11.97-5.71 15.34-11.1a23.89 23.89 0 0 0 3.91-13.55c-.01-8.58-3.49-14.76-10.24-18.22-4.6-2.35-9.49-3.8-20.21-5.97-14.07-2.86-18.34-4.35-21.13-7.4-1.85-2.03-2.21-3.29-2.21-7.71 0-3.52.02-3.66.8-5.32 1.02-2.14 2.17-3.43 4.55-5.06 2.44-1.68 4.11-2.51 6.11-3.03 2.29-.6 8.83-.79 13.55-.4 9.07.72 14.57 2.53 22.09 7.23 1.58 1 3.02 1.8 3.2 1.8.48 0 .67-2.91.58-8.6l-.08-4.85-2.2-.89c-8.3-3.36-16.5-4.82-27.07-4.84zm1549.62 1.33v86.97h10.83v-34.82l8.44.02 8.45.01 14.05 17.02c7.73 9.36 14.24 17.2 14.47 17.4.34.31 1.63.36 7.89.3l7.48-.06-13.15-15.35c-15.27-17.83-18.54-21.82-18.44-22.53.05-.32.81-.9 2.14-1.63 5.46-3.01 10.81-8.62 12.48-13.1 1.43-3.8 2.26-9.14 1.97-12.64-.74-8.95-5.45-15.09-14.5-18.94-3.8-1.61-6.89-1.93-21.1-2.19-4.53-.08-11.12-.22-14.63-.3zm84.07.02v87.2h1.13c5.48 0 30.76-.57 34.71-.78 10.2-.55 13.76-1.54 18.53-5.15 4.85-3.65 7.6-7.14 9-11.37 1.88-5.7 1.75-13.7-.31-19.18-2.18-5.8-6.35-9.52-13.49-12.03a38.18 38.18 0 0 1-2.6-.99c-.25-.13.39-.8 2.19-2.26 3.13-2.56 4.66-4.14 5.89-6.08 4.08-6.46 3.44-16.22-1.42-21.65-2.5-2.8-6.7-5.26-10.19-5.98-3.75-.78-6.16-.88-36.54-1.57zm-175.1.24V764.38h10.76l.16-20.83c.1-11.45.25-28.54.36-37.97l.2-17.15 19.95 37.65c10.98 20.71 20 37.71 20.07 37.78.06.07 3.2.25 6.99.4 3.78.17 6.96.31 7.07.34.1.02.2-19.52.2-43.42v-43.45h-10.52l-.15 4.96c-.1 2.73-.24 18.23-.33 34.43-.09 16.2-.23 29.46-.32 29.46s-8.3-15.34-18.26-34.1l-18.1-34.1-1.5-.17c-.81-.1-4.88-.25-9.03-.36zm-230.04.06v10.83h12.9v-10.83H1270zm-1042.87 2.84v19.04l-3.12.08c-3.97.11-3.85-.03-3.85 4.4 0 4.38-.04 4.33 4 4.33h2.97v14.37c0 26.97.87 33.16 5.3 37.59 2.04 2.05 6.2 4 9.62 4.5 2.05.3 6.82.3 10.6.01 7.58-.59 8.24-1.12 8.25-6.73.01-2.83-.17-4.01-.63-4.19-.17-.06-1.4.16-2.71.5-4.68 1.22-10.9 1.23-13.5.03a9.12 9.12 0 0 1-4.19-4.14c-1.59-3.48-1.92-8.05-1.92-26.9v-15.04h22.96v-8.77H231.5v-19.08h-5.41zm811.04 0v19.04l-3.12.08c-3.98.11-3.84-.05-3.84 4.5 0 4.32-.1 4.23 4.05 4.23h2.9v15.15c0 8.33.13 17.12.27 19.53.57 9.5 1.94 14.25 4.98 17.26 2.05 2.03 6.23 4 9.59 4.53 1.91.3 10.87.12 13.66-.27 4.6-.63 5.15-1.33 5.16-6.49 0-4.5 0-4.5-2.7-3.81-4.3 1.1-10.82 1.31-13.42.42a8.34 8.34 0 0 1-5.16-5.26c-1.25-3.34-1.36-5.2-1.47-23.72l-.11-17.34H1065.5v-8.77H1042.55v-19.08h-5.42zm184.9 0v19.04l-3.08.08c-2.09.06-3.2.2-3.42.42-.24.25-.33 1.34-.33 3.96 0 4.5-.15 4.35 3.88 4.35h2.89l.13 17.21c.08 9.47.27 18.43.42 19.92.62 6.1 1.56 10.1 2.9 12.34 1.97 3.33 6.18 5.96 11.01 6.88 1.47.28 3.25.34 7 .26 8.15-.2 10.53-.66 11.72-2.28.48-.66.53-1.1.53-4.57 0-2.44-.1-3.94-.28-4.12-.2-.2-.84-.14-2.32.24-5.4 1.38-11.7 1.37-14.42-.01a9.07 9.07 0 0 1-3.83-4.07c-1.6-3.6-1.97-8.74-1.97-27.68v-14.12H1250.4v-8.77H1227.45v-19.08h-5.42zm462.9 6.7h.96c4.05 0 20.61.57 22.9.78 3.54.33 5.08.77 6.66 1.89 2.76 1.96 4.33 5.23 4.34 9.06.01 3.77-1.17 6.88-3.53 9.3-2.57 2.63-5.4 3.53-12.5 3.96-2.35.14-7.54.34-11.55.44l-7.28.17v-12.8zm-84.07.2l9.22.14c7.64.11 9.68.22 11.92.64 6.3 1.17 9.46 3.18 11.38 7.2 3.26 6.83.91 15.7-5.42 20.45-3.13 2.35-6.08 3.13-13.56 3.6-2.27.15-6.25.26-8.84.26h-4.7v-16.14zM415.94 697.85c-6.72 0-12.34 2.08-19.78 7.3l-3.86 2.72-.52-.58a129.8 129.8 0 0 1-2.12-2.55c-3.97-4.87-9.6-7.1-17.22-6.82-5.8.2-8.9 1.4-16.17 6.17l-3.82 2.5v-6.94h-10.83V732l.01 32.37h10.83v-20.83c0-11.92.12-21.87.26-23.27.56-5.31 1.32-6.54 5.32-8.58 5.7-2.89 9.56-4.06 13.44-4.06 3.68 0 6.59 1.12 8.66 3.34 1.67 1.79 2.41 3.5 2.73 6.34.5 4.31.79 16.17.79 31.65v15.4h10.83v-48.86l3.16-2.12c3.6-2.4 6.52-3.85 9.86-4.88 2.07-.63 2.74-.71 6.06-.72 3.3-.02 3.91.05 5.16.56 3.31 1.35 5.04 3.48 5.8 7.16.82 4 .96 7.45 1.09 28.04l.13 20.83h10.81l-.16-14.77c-.23-20.42-.58-34.5-.92-36.92a14.59 14.59 0 0 0-2.6-6.74c-3.64-5.58-8.92-8.1-16.94-8.1zm324.22 0c-7.58 0-13.37 1.72-17.87 5.32-4.76 3.8-9.29 9.47-10.9 13.6-1.74 4.52-2.48 11.53-2.02 19.15.36 6.04 1.13 9.32 3.15 13.36 3 6.01 6.14 9.06 12.7 12.33 4.04 2.02 6.25 2.68 11.35 3.4.42.05 3.15.06 6.06 0 8.2-.16 13.05-.99 20.11-3.43l3.48-1.2.07-6.12c.04-3.37 0-6.13-.09-6.13s-1.5.73-3.16 1.63c-4.77 2.59-8.71 4.13-12.67 4.95-14.1 2.93-25.83-2.83-29.39-14.43a39.2 39.2 0 0 1-1.3-7.17v-.71h49.05l-.16-1.48-.55-5.61c-.96-9.8-2.91-15.38-6.88-19.62-4.87-5.2-11.92-7.84-20.98-7.84zm-186.7.02c-5.84.1-11.34 1.3-15.72 3.53-1.9.98-2.78 1.65-4.92 3.78-4 3.97-5.09 6.68-5.08 12.56.01 6.24 1.78 9.78 6.44 12.86 3.5 2.3 8.29 3.96 17.48 6.04 12.07 2.74 14.87 4.61 14.91 9.95.02 2.5-.83 4.5-2.65 6.2-2.5 2.35-5.88 3.54-10.7 3.76a19.8 19.8 0 0 1-6.38-.53 49.7 49.7 0 0 1-17.21-6.85c-2.4-1.55-2.45-1.57-2.67-.98-.35.89 0 8.61.45 10.14.7 2.3 2.27 3.28 7.88 4.88a54.6 54.6 0 0 0 9.62 1.94c3.17.34 9.68.1 13.08-.5 9.34-1.6 14.95-5.19 17.95-11.49 1.38-2.91 1.77-4.73 1.76-8.38 0-5.05-1.16-8.02-4.22-10.9-3.41-3.23-7.57-4.88-18.98-7.54-6.8-1.6-11-2.98-12.58-4.14a8.8 8.8 0 0 1-3.05-4.37c-1.1-4.06 2.62-9.22 7.46-10.34 2.15-.5 7.78-.7 11.15-.4 3.9.35 5.44.88 12.21 4.23a84.69 84.69 0 0 0 5.73 2.7c.16-.16-.46-11.65-.64-11.83-.33-.33-8.23-2.77-10.6-3.27a48.3 48.3 0 0 0-10.72-1.05zm769.62 0c-3.92.1-7.8.78-10.92 2.02-8.25 3.3-14.11 10.36-16.77 20.19-3.8 14.06-.75 29.13 7.66 38 4.81 5.06 8.98 7.08 16.33 7.94 3.63.41 9.9-.05 13.72-1 10.56-2.67 18.07-11.62 20.11-23.98.67-4.04.67-14.04 0-18.04-2.06-12.28-9.68-21.16-20.67-24.07a33.6 33.6 0 0 0-9.45-1.05zm-339.56.02c-.69-.01-1.38 0-2.09.02-7.99.31-13.77 2.66-18.86 7.67-4.76 4.69-7.68 10.66-9.15 18.7-.67 3.69-.68 12.14 0 15.73 2.72 14.58 11.76 24.45 23.75 25.9 2.76.33 9.82.14 12.38-.34 6.12-1.14 10.76-3.53 14.54-7.5a27.05 27.05 0 0 0 5.03-7.3c2.67-5.3 3.6-10.07 3.61-18.5.02-10.14-1.37-15.8-5.4-21.99-5.19-7.94-13.47-12.24-23.8-12.4zm420.78.02c-5.71.2-10.57 1.97-17.4 6.2-1.31.8-2.55 1.47-2.75 1.47-.48 0-.68-.8-.68-2.87 0-1.3-.12-1.86-.5-2.32-.47-.6-.6-.61-5.4-.7l-4.93-.08V764.38h10.84v-20.96c0-21.07.13-24.61.94-27.24.68-2.16 1.76-3.1 6.03-5.17 7.37-3.6 13.94-4.27 18.99-1.96 5.97 2.74 6.5 5.46 7.04 36.5.16 8.87.35 16.73.42 17.47l.13 1.36h10.54v-2.9c0-1.6-.12-9.52-.26-17.6-.53-30.51-.93-33.61-5.03-38.75-3.7-4.66-8.62-6.95-15.47-7.21-.86-.04-1.7-.04-2.5-.01zm-918.9.07c-5.77 0-7.68.25-11.43 1.52-3.94 1.34-6.21 2.9-10.5 7.23-5.62 5.67-7.84 10.08-8.92 17.68a95.32 95.32 0 0 0-.32 8.64c-.01 7 .22 8.76 1.55 12.04 4.12 10.15 10.44 16.1 20.07 18.9 1.28.37 3.13.77 4.13.9 2.54.33 11.5.1 15.33-.38 4.5-.57 7.25-1.21 11.94-2.77l4.06-1.35v-6.13c0-3.37-.07-6.13-.15-6.13-.08 0-1.41.7-2.96 1.56-9.81 5.42-18.88 7.05-27.2 4.88a21.1 21.1 0 0 1-15.3-15.34 45.6 45.6 0 0 1-1.07-6.46c0-.32 3.45-.37 24.53-.37h24.53l-.18-2c-.8-9.02-1.4-12.8-2.62-16.46a20.73 20.73 0 0 0-5.56-9.04c-3.2-3.06-6.78-4.95-11.82-6.23-2.5-.63-3.12-.69-8.12-.7zm620.97 0c-4.3 0-5.85.09-7.55.46-6.13 1.35-9.26 3.13-14.11 8.02-5.26 5.3-7.63 9.48-8.77 15.47-1.05 5.5-.97 17.6.14 21.17a44.34 44.34 0 0 0 4.56 9.38c4.36 6.58 12.2 11.37 20.32 12.41.99.13 4.12.19 6.96.13 8.5-.17 14.21-1.11 20.89-3.45l3.61-1.26.07-6.24.07-6.23-2.13 1.2c-1.18.65-3.3 1.75-4.72 2.43-16.83 8.1-33.68 3.55-38.46-10.42a49.73 49.73 0 0 1-1.64-8.16c0-.48.6-.49 24.5-.49h24.5v-.65c0-1.69-1.1-11.1-1.57-13.4-1.58-7.77-4.46-12.41-9.96-16.04a26.04 26.04 0 0 0-8.58-3.64c-2.5-.63-3.12-.69-8.13-.7zm-810.14 0c-5.22 0-5.7.03-8.32.7-9.3 2.36-15.66 7.2-19.4 14.77-2.4 4.85-3.73 9.86-4.27 16.11-.6 7.08.75 14.88 3.5 20.1 4.07 7.7 13.45 14.11 22.27 15.24 2.44.32 11.47.09 15.15-.38 4.73-.6 7.83-1.3 12.1-2.76a50.7 50.7 0 0 0 4.06-1.5c.1-.1.17-2.85.13-6.12l-.07-5.95-4 1.92c-6.92 3.32-11.25 4.67-16.88 5.26-7.94.84-14.13-1.27-19.11-6.5-4.01-4.2-5.71-8.03-5.97-13.44l-.15-3.03h48.11l-.14-5.35c-.19-7.25-1.11-11.34-3.68-16.3-3.24-6.26-8.15-10.15-15.2-12.05-2.41-.65-2.94-.7-8.12-.71zm566.19.02c-4.3-.02-5.54.15-9.36 1.3-2.94.87-5.29 1.98-9.12 4.3a50.87 50.87 0 0 1-3.41 1.98c-.1 0-.17-1.07-.17-2.38 0-1.32-.1-2.54-.2-2.72-.4-.62-2-.83-6.3-.83h-4.32V788.36h10.77l.13-12.05c.13-11.37.28-13.68.92-14.32.17-.17.87-.02 2.1.45 7.98 3.05 16.42 3.55 23.21 1.38a31.5 31.5 0 0 0 7.79-4.07c4.78-3.62 8.87-9.7 10.23-15.23 1.81-7.32 2.2-19.44.85-26.08a29.77 29.77 0 0 0-7.86-14.63c-2.63-2.7-5.15-4.16-9.07-5.23-1.7-.46-2.8-.57-6.2-.58zm-683 0c-7.26 0-11.6.85-16.25 3.2a17.74 17.74 0 0 0-5.4 3.94c-3.22 3.13-4.53 5.87-4.99 10.4a16.5 16.5 0 0 0 .13 5.38c1.34 8.21 6.77 11.85 23.25 15.6 8.89 2.02 11.93 3.2 13.82 5.35 1.24 1.41 1.65 2.88 1.5 5.42-.13 2.22-.52 3.17-1.94 4.75-3.85 4.26-11.6 5.68-19.67 3.6a49.12 49.12 0 0 1-14.95-6.3c-2.32-1.46-2.74-1.64-2.94-1.28-.3.55-.02 8.94.35 10.2.67 2.25 2.46 3.37 7.92 4.92a51.5 51.5 0 0 0 9.36 1.94c10.3 1.05 21.1-1.28 26.48-5.7a19.86 19.86 0 0 0 6.17-9.74c.62-2.3.62-7.25 0-9.54-.7-2.6-1.85-4.5-3.8-6.3-3.57-3.3-7.02-4.64-20.34-7.86-6.44-1.56-9.03-2.4-10.64-3.43-4.62-2.95-5.05-8.23-1-12.27 2.15-2.16 3.83-2.83 7.97-3.18 4.72-.4 10.05 0 12.95.96 1.16.38 4.55 1.9 7.54 3.37 2.99 1.47 5.46 2.64 5.5 2.6.03-.04-.07-2.73-.23-5.98l-.3-5.92-4.55-1.5c-6.52-2.14-9.4-2.62-15.95-2.63zm999.93.24c-6.66.02-9.56.45-13.23 1.98-7.8 3.24-14.64 11.33-17.12 20.23-.53 1.89-.56 2.58-.57 10.53-.01 8.2.02 8.63.66 11.6.37 1.7.99 3.91 1.38 4.9a28.85 28.85 0 0 0 10.52 12.96 32.65 32.65 0 0 0 11.01 4.34c2.8.46 10.92.31 14.64-.27a43.61 43.61 0 0 0 10.06-2.74l3.67-1.38v-6.13c0-3.37-.06-6.13-.13-6.13s-2.35 1.11-5.06 2.47a78.32 78.32 0 0 1-7.59 3.36c-8.19 2.74-14.97 1.82-20.91-2.83a17.28 17.28 0 0 1-6.28-10.04c-1.36-5.74-1.16-15.74.42-20.68 2.4-7.51 9.91-12.77 18.24-12.77 4.69 0 8.62 1.2 15.95 4.81l5.36 2.65v-12.3l-3.57-1.43c-6.49-2.6-9.53-3.14-17.45-3.13zm-273.74 1.4v64.74h10.83v-19.4c0-10.88.12-20.49.26-21.86.58-5.6 1.44-6.7 7.48-9.46 7.05-3.23 8.27-3.44 16.59-2.8 3.1.24 5.66.4 5.69.35.14-.22-.53-10.78-.7-10.94-.1-.1-2.3-.24-4.89-.3-3.68-.1-5.2-.03-6.98.3-4.34.82-8.12 2.51-13.85 6.18l-3.47 2.23-.07-4.52-.07-4.51h-5.41zm358.97 0v64.74h10.84V699.65H1270zm-1178.18.02c-.72 0-1.6.02-2.71.04-3.63.08-5.48.22-5.69.42-.36.36-.12.96 10.65 26.74 8.96 21.43 13.62 32.97 13.82 34.21.17 1.05-.92 3.87-5.63 14.5-4.12 9.29-5.15 11.8-5 12.18.07.17.45.36.85.42.4.06 2.87.13 5.51.15l4.8.04 5.24-12.31c31.17-73.18 32.06-75.3 31.88-75.76-.07-.2-.58-.39-1.12-.43-1.1-.09-9.65.26-9.8.4-.04.05-2.97 6.98-6.49 15.4-9.67 23.13-12.96 30.87-13.3 31.34-.26.36-.56-.13-1.94-3.28-2.4-5.45-16.04-38.15-18.26-43.78-.08-.22-.66-.3-2.8-.28zm1019.54 6.98c1.74-.04 3.45.08 4.9.38 5.48 1.12 9.48 4.74 11.4 10.34.49 1.39 1.54 6.17 1.54 6.95 0 .3-2.95.36-19.08.36-12.17 0-19.09-.1-19.09-.25 0-.97 2.28-6.92 3.3-8.63a18.62 18.62 0 0 1 9.02-7.78c2.07-.83 5.1-1.32 8-1.37zm-620.11.01c1.43.01 2.78.12 3.82.33 5.72 1.15 9.87 4.9 11.7 10.6a57.81 57.81 0 0 1 1.45 6.73c0 .3-2.97.36-19.1.36h-19.11l.18-.8c.1-.45.52-1.87.94-3.17 2.26-7.02 6.9-11.66 13.33-13.35 1.8-.48 4.4-.72 6.79-.7zm253.32.01c.5 0 1.02.01 1.55.04 8.25.44 13.53 4.09 15.65 10.83.42 1.34 1.5 6.32 1.5 6.94 0 .1-8.6.2-19.09.2-16.45 0-19.08-.06-19.08-.38 0-.83 1.86-5.96 2.83-7.82 3.37-6.45 9.03-9.78 16.64-9.8zm-443.82.34c5.02 0 7.2.4 9.46 1.76 3.46 2.08 7.57 9.33 7.89 13.9l.13 2-16.47-.03c-9.07-.02-17.3-.13-18.28-.24-2.3-.27-2.84-.8-2.58-2.55.65-4.39 5.68-11.08 9.76-13.01 3.1-1.47 5.11-1.83 10.1-1.83zm564.25.51c1.81 0 3.48.3 5.02.88 6.87 2.61 10.37 9.47 10.76 21.07.23 6.89-.48 11.51-2.37 15.46-2.7 5.63-8.14 9.49-14.7 10.42-4.82.69-8.31.15-16.96-2.6l-.98-.32.17-11.1c.1-6.11.24-14.75.33-19.2l.16-8.08 4.2-2.15c5.7-2.93 10.39-4.37 14.37-4.38zm464.91.14a17.34 17.34 0 0 1 14.1 7.47c3.2 4.67 4.09 9.28 3.8 19.57-.17 6.06-.5 7.93-1.85 10.62-1.38 2.74-2.3 4-4.77 6.45-2.58 2.58-4.86 3.85-8.06 4.49-3.43.68-6.98.33-10.38-1.03-4.48-1.8-6.71-3.86-8.97-8.3a36.76 36.76 0 0 1-1.98-4.59c-1.53-4.99-1.17-17.33.66-22.82 1.55-4.63 4.2-7.83 8.09-9.74a20.34 20.34 0 0 1 9.36-2.12zm-341.03.04c2.82 0 5.05.53 7.56 1.76 4.52 2.2 8.16 6.8 9.49 11.97 1.1 4.32 1.33 15.07.4 19.83a19.6 19.6 0 0 1-3.76 7.89c-2.63 3.49-5.35 5.58-8.63 6.63-4.7 1.5-10.2.83-14.97-1.83-2.92-1.64-4.82-3.93-6.87-8.3-1.91-4.08-2.11-5.28-2.11-12.72 0-7.33.32-10.08 1.62-13.87 1-2.86 2.14-4.7 4.15-6.6 3.13-2.96 7.04-4.52 11.87-4.74.43-.02.85-.02 1.25-.02zm-317.33.02c3.67.13 7.95 1.03 11.84 2.57l2.77 1.1v37.74l-2.77 1.74a44.34 44.34 0 0 1-10.25 4.9c-3.23.94-7.46 1.1-10.14.38-2.7-.73-4.31-1.68-6.37-3.75-2.9-2.9-4.61-6.68-5.3-11.74-.43-3.1-.44-12.57-.02-15.43.71-4.8 2.79-9.04 5.94-12.16 3.14-3.1 6.24-4.58 10.88-5.2 1.05-.14 2.2-.19 3.42-.15zm1013.39 14.55l11.68.17c12.32.18 15.72.4 19.22 1.22 3.42.8 5.24 1.83 7.95 4.51 3.08 3.05 3.18 3.38 3.18 9.92 0 6.62-.07 6.83-3.44 10.18-3.85 3.82-6.1 4.87-12.29 5.7-2.14.3-6.2.45-14.63.54l-11.67.14v-16.2z"/><path fill="#6e6e6d" stroke="#6e6e6d" stroke-width=".74" d="M67.53 629.67c-38.1-.12-67.16-.5-67.16-.86s8.86-.91 19.69-1.23c28.5-.85 1756.23-.84 1778.8 0 14.54.54 17.71.83 15.1 1.37-3.02.62-1573.57 1.27-1746.43.72z"/></svg>
